<svg enable-background="new 0 0 48 48" height="48px" id="Layer_4" version="1.1" viewBox="0 0 48 48" width="48px" xml:space="preserve" xmlns="http://www.w3.org/2000/svg" xmlns:xlink="http://www.w3.org/1999/xlink">
  <path d="M31.634,29.297l16.233-16.233L35.015,0.212L18.782,16.445l4.818,4.818l-2.425,2.425l-4.858-4.857L0.083,35.063l12.852,12.853l16.234-16.233l-4.857-4.857l2.425-2.425L31.634,29.297z M23.757,31.683L12.933,42.506l-7.439-7.441l10.823-10.822l2.152,2.152l-3.254,3.254l3.137,3.137l3.254-3.254L23.757,31.683z M24.192,16.446L35.015,5.624l7.44,7.44L31.632,23.887l-2.19-2.191l3.344-3.344l-3.137-3.137l-3.344,3.344L24.192,16.446z" fill="current" stroke="black" stroke-width="1" />
</svg>
